<svg viewBox="0 0 1000 700" xmlns="http://www.w3.org/2000/svg">
  <!-- Background -->
  <rect width="1000" height="700" fill="#f8f9fa"/>
  
  <!-- Title -->
  <text x="500" y="30" text-anchor="middle" font-size="24" font-weight="bold" fill="#2c3e50">
    HashiCorp Vault + Kubernetes Secret Management
  </text>
  
  <!-- Kubernetes Cluster Box -->
  <rect x="50" y="80" width="900" height="580" fill="#e8f4f8" stroke="#3498db" stroke-width="3" rx="10"/>
  <text x="70" y="105" font-size="18" font-weight="bold" fill="#2980b9">Kubernetes Cluster (vault namespace)</text>
  
  <!-- Vault Pod -->
  <rect x="100" y="130" width="200" height="180" fill="#663399" stroke="#4a0e4e" stroke-width="2" rx="8"/>
  <text x="200" y="155" text-anchor="middle" font-size="16" font-weight="bold" fill="white">Vault Pod</text>
  <text x="200" y="175" text-anchor="middle" font-size="12" fill="white">vault-0</text>
  
  <!-- Vault Components -->
  <rect x="120" y="190" width="160" height="30" fill="#8e44ad" stroke="#7d3c98" stroke-width="1" rx="4"/>
  <text x="200" y="210" text-anchor="middle" font-size="11" fill="white">Auth Method: Kubernetes</text>
  
  <rect x="120" y="225" width="160" height="30" fill="#8e44ad" stroke="#7d3c98" stroke-width="1" rx="4"/>
  <text x="200" y="245" text-anchor="middle" font-size="11" fill="white">Policy: read-policy</text>
  
  <rect x="120" y="260" width="160" height="30" fill="#8e44ad" stroke="#7d3c98" stroke-width="1" rx="4"/>
  <text x="200" y="280" text-anchor="middle" font-size="11" fill="white">Secret: secret/clisecret</text>
  
  <!-- Vault UI Service -->
  <rect x="100" y="330" width="200" height="60" fill="#e74c3c" stroke="#c0392b" stroke-width="2" rx="8"/>
  <text x="200" y="355" text-anchor="middle" font-size="14" font-weight="bold" fill="white">Vault UI Service</text>
  <text x="200" y="375" text-anchor="middle" font-size="12" fill="white">NodePort: 31261</text>
  
  <!-- Application Pod -->
  <rect x="400" y="130" width="200" height="180" fill="#27ae60" stroke="#229954" stroke-width="2" rx="8"/>
  <text x="500" y="155" text-anchor="middle" font-size="16" font-weight="bold" fill="white">Application Pod</text>
  <text x="500" y="175" text-anchor="middle" font-size="12" fill="white">with vault-serviceaccount</text>
  
  <!-- Secret Volume -->
  <rect x="420" y="190" width="160" height="30" fill="#2ecc71" stroke="#27ae60" stroke-width="1" rx="4"/>
  <text x="500" y="210" text-anchor="middle" font-size="11" fill="white">/vault/secrets/clisecret</text>
  
  <!-- SA Token -->
  <rect x="420" y="225" width="160" height="30" fill="#2ecc71" stroke="#27ae60" stroke-width="1" rx="4"/>
  <text x="500" y="245" text-anchor="middle" font-size="11" fill="white">SA JWT Token</text>
  
  <!-- Kubernetes API Server -->
  <rect x="700" y="130" width="200" height="120" fill="#3498db" stroke="#2980b9" stroke-width="2" rx="8"/>
  <text x="800" y="155" text-anchor="middle" font-size="16" font-weight="bold" fill="white">Kubernetes API Server</text>
  <text x="800" y="175" text-anchor="middle" font-size="12" fill="white">Token Validation</text>
  
  <!-- API Server Components -->
  <rect x="720" y="190" width="160" height="25" fill="#5dade2" stroke="#3498db" stroke-width="1" rx="4"/>
  <text x="800" y="207" text-anchor="middle" font-size="10" fill="white">Service Account Auth</text>
  
  <rect x="720" y="220" width="160" height="25" fill="#5dade2" stroke="#3498db" stroke-width="1" rx="4"/>
  <text x="800" y="237" text-anchor="middle" font-size="10" fill="white">RBAC Validation</text>
  
  <!-- External Access -->
  <rect x="100" y="450" width="200" height="80" fill="#f39c12" stroke="#e67e22" stroke-width="2" rx="8"/>
  <text x="200" y="475" text-anchor="middle" font-size="14" font-weight="bold" fill="white">External Access</text>
  <text x="200" y="495" text-anchor="middle" font-size="12" fill="white">minikube service vault-ui</text>
  <text x="200" y="515" text-anchor="middle" font-size="12" fill="white">http://node-ip:31261</text>
  
  <!-- Service Account -->
  <rect x="400" y="330" width="200" height="80" fill="#9b59b6" stroke="#8e44ad" stroke-width="2" rx="8"/>
  <text x="500" y="355" text-anchor="middle" font-size="14" font-weight="bold" fill="white">Service Account</text>
  <text x="500" y="375" text-anchor="middle" font-size="12" fill="white">vault-serviceaccount</text>
  <text x="500" y="395" text-anchor="middle" font-size="12" fill="white">Namespace: vault</text>
  
  <!-- Vault Role -->
  <rect x="700" y="330" width="200" height="80" fill="#e67e22" stroke="#d35400" stroke-width="2" rx="8"/>
  <text x="800" y="355" text-anchor="middle" font-size="14" font-weight="bold" fill="white">Vault Role</text>
  <text x="800" y="375" text-anchor="middle" font-size="12" fill="white">vault-role</text>
  <text x="800" y="395" text-anchor="middle" font-size="12" fill="white">TTL: 1h</text>
  
  <!-- Flow Arrows -->
  <!-- 1. App to Vault -->
  <defs>
    <marker id="arrowhead" markerWidth="10" markerHeight="7" refX="9" refY="3.5" orient="auto">
      <polygon points="0 0, 10 3.5, 0 7" fill="#2c3e50"/>
    </marker>
  </defs>
  
  <!-- 1. App requests secret -->
  <path d="M 400 220 Q 350 220 300 220" stroke="#2c3e50" stroke-width="2" fill="none" marker-end="url(#arrowhead)"/>
  <text x="350" y="210" text-anchor="middle" font-size="10" fill="#2c3e50">1. Request Secret</text>
  
  <!-- 2. Vault validates with API -->
  <path d="M 700 190 Q 650 160 600 190" stroke="#2c3e50" stroke-width="2" fill="none" marker-end="url(#arrowhead)"/>
  <text x="650" y="150" text-anchor="middle" font-size="10" fill="#2c3e50">2. Validate JWT</text>
  
  <!-- 3. API validates SA -->
  <path d="M 700 230 Q 650 280 600 230" stroke="#2c3e50" stroke-width="2" fill="none" marker-end="url(#arrowhead)"/>
  <text x="650" y="300" text-anchor="middle" font-size="10" fill="#2c3e50">3. Validate SA</text>
  
  <!-- 4. Check role/policy -->
  <path d="M 700 350 Q 550 300 400 350" stroke="#2c3e50" stroke-width="2" fill="none" marker-end="url(#arrowhead)"/>
  <text x="550" y="290" text-anchor="middle" font-size="10" fill="#2c3e50">4. Check Role & Policy</text>
  
  <!-- 5. Return secret -->
  <path d="M 300 280 Q 350 320 400 280" stroke="#27ae60" stroke-width="3" fill="none" marker-end="url(#arrowhead)"/>
  <text x="350" y="340" text-anchor="middle" font-size="10" fill="#27ae60" font-weight="bold">5. Inject Secret</text>
  
  <!-- External access arrow -->
  <path d="M 200 450 Q 200 420 200 390" stroke="#f39c12" stroke-width="2" fill="none" marker-end="url(#arrowhead)"/>
  <text x="240" y="425" font-size="10" fill="#f39c12">Access UI</text>
  
  <!-- Legend -->
  <rect x="50" y="570" width="900" height="80" fill="#ecf0f1" stroke="#bdc3c7" stroke-width="1" rx="5"/>
  <text x="70" y="590" font-size="14" font-weight="bold" fill="#2c3e50">Authentication Flow:</text>
  <text x="70" y="610" font-size="12" fill="#2c3e50">1. App pod presents SA JWT token → 2. Vault validates token with K8s API → 3. API confirms SA exists</text>
  <text x="70" y="630" font-size="12" fill="#2c3e50">4. Vault checks role/policy mapping → 5. Secret injected into pod volume at /vault/secrets/</text>
  
  <!-- Components Legend -->
  <circle cx="250" cy="610" r="5" fill="#663399"/>
  <text x="265" y="615" font-size="11" fill="#2c3e50">Vault</text>
  
  <circle cx="350" cy="610" r="5" fill="#27ae60"/>
  <text x="365" y="615" font-size="11" fill="#2c3e50">App Pod</text>
  
  <circle cx="450" cy="610" r="5" fill="#3498db"/>
  <text x="465" y="615" font-size="11" fill="#2c3e50">K8s API</text>
  
  <circle cx="550" cy="610" r="5" fill="#9b59b6"/>
  <text x="565" y="615" font-size="11" fill="#2c3e50">Service Account</text>
  
  <circle cx="680" cy="610" r="5" fill="#e67e22"/>
  <text x="695" y="615" font-size="11" fill="#2c3e50">Vault Role</text>
</svg>